<svg width="41" height="71" viewBox="0 0 41 71" fill="none" xmlns="http://www.w3.org/2000/svg">
<path d="M21 36C30.9411 36 39 27.9411 39 18C39 8.05887 30.9411 0 21 0C11.0589 0 3 8.05887 3 18C3 27.9411 11.0589 36 21 36Z" fill="#428BC1"/>
<path d="M21 33.75C29.6985 33.75 36.75 26.6985 36.75 18C36.75 9.30151 29.6985 2.25 21 2.25C12.3015 2.25 5.25 9.30151 5.25 18C5.25 26.6985 12.3015 33.75 21 33.75Z" fill="white"/>
<path d="M15.1514 4.5C15.7727 4.5 16.2764 3.99632 16.2764 3.375C16.2764 2.75368 15.7727 2.25 15.1514 2.25C14.53 2.25 14.0264 2.75368 14.0264 3.375C14.0264 3.99632 14.53 4.5 15.1514 4.5Z" fill="#428BC1"/>
<path d="M11.5518 6.52344C12.1731 6.52344 12.6768 6.01976 12.6768 5.39844C12.6768 4.77712 12.1731 4.27344 11.5518 4.27344C10.9304 4.27344 10.4268 4.77712 10.4268 5.39844C10.4268 6.01976 10.9304 6.52344 11.5518 6.52344Z" fill="#428BC1"/>
<path d="M8.62695 9.44824C9.24827 9.44824 9.75195 8.94456 9.75195 8.32324C9.75195 7.70192 9.24827 7.19824 8.62695 7.19824C8.00563 7.19824 7.50195 7.70192 7.50195 8.32324C7.50195 8.94456 8.00563 9.44824 8.62695 9.44824Z" fill="#428BC1"/>
<path d="M6.60156 13.0498C7.22288 13.0498 7.72656 12.5461 7.72656 11.9248C7.72656 11.3035 7.22288 10.7998 6.60156 10.7998C5.98024 10.7998 5.47656 11.3035 5.47656 11.9248C5.47656 12.5461 5.98024 13.0498 6.60156 13.0498Z" fill="#428BC1"/>
<path d="M5.47656 17.0986C6.09788 17.0986 6.60156 16.595 6.60156 15.9736C6.60156 15.3523 6.09788 14.8486 5.47656 14.8486C4.85524 14.8486 4.35156 15.3523 4.35156 15.9736C4.35156 16.595 4.85524 17.0986 5.47656 17.0986Z" fill="#428BC1"/>
<path d="M5.47656 21.1484C6.09788 21.1484 6.60156 20.6448 6.60156 20.0234C6.60156 19.4021 6.09788 18.8984 5.47656 18.8984C4.85524 18.8984 4.35156 19.4021 4.35156 20.0234C4.35156 20.6448 4.85524 21.1484 5.47656 21.1484Z" fill="#428BC1"/>
<path d="M6.60156 25.1982C7.22288 25.1982 7.72656 24.6946 7.72656 24.0732C7.72656 23.4519 7.22288 22.9482 6.60156 22.9482C5.98024 22.9482 5.47656 23.4519 5.47656 24.0732C5.47656 24.6946 5.98024 25.1982 6.60156 25.1982Z" fill="#428BC1"/>
<path d="M8.62695 28.7998C9.24827 28.7998 9.75195 28.2961 9.75195 27.6748C9.75195 27.0535 9.24827 26.5498 8.62695 26.5498C8.00563 26.5498 7.50195 27.0535 7.50195 27.6748C7.50195 28.2961 8.00563 28.7998 8.62695 28.7998Z" fill="#428BC1"/>
<path d="M11.5518 31.7246C12.1731 31.7246 12.6768 31.2209 12.6768 30.5996C12.6768 29.9783 12.1731 29.4746 11.5518 29.4746C10.9304 29.4746 10.4268 29.9783 10.4268 30.5996C10.4268 31.2209 10.9304 31.7246 11.5518 31.7246Z" fill="#428BC1"/>
<path d="M15.1514 33.75C15.7727 33.75 16.2764 33.2463 16.2764 32.625C16.2764 32.0037 15.7727 31.5 15.1514 31.5C14.53 31.5 14.0264 32.0037 14.0264 32.625C14.0264 33.2463 14.53 33.75 15.1514 33.75Z" fill="#428BC1"/>
<path d="M18.9766 34.6484C19.5979 34.6484 20.1016 34.1448 20.1016 33.5234C20.1016 32.9021 19.5979 32.3984 18.9766 32.3984C18.3552 32.3984 17.8516 32.9021 17.8516 33.5234C17.8516 34.1448 18.3552 34.6484 18.9766 34.6484Z" fill="#428BC1"/>
<path d="M22.127 33.7484C22.127 33.0734 22.577 32.6234 23.027 32.3984C23.702 32.3984 24.152 32.8484 24.377 33.2984C24.377 33.9734 23.927 34.4234 23.477 34.6484C22.577 34.8734 22.127 34.4234 22.127 33.7484Z" fill="#428BC1"/>
<path d="M27.0762 33.75C27.6975 33.75 28.2012 33.2463 28.2012 32.625C28.2012 32.0037 27.6975 31.5 27.0762 31.5C26.4549 31.5 25.9512 32.0037 25.9512 32.625C25.9512 33.2463 26.4549 33.75 27.0762 33.75Z" fill="#428BC1"/>
<path d="M30.6768 31.7246C31.2981 31.7246 31.8018 31.2209 31.8018 30.5996C31.8018 29.9783 31.2981 29.4746 30.6768 29.4746C30.0554 29.4746 29.5518 29.9783 29.5518 30.5996C29.5518 31.2209 30.0554 31.7246 30.6768 31.7246Z" fill="#428BC1"/>
<path d="M33.6016 28.7998C34.2229 28.7998 34.7266 28.2961 34.7266 27.6748C34.7266 27.0535 34.2229 26.5498 33.6016 26.5498C32.9802 26.5498 32.4766 27.0535 32.4766 27.6748C32.4766 28.2961 32.9802 28.7998 33.6016 28.7998Z" fill="#428BC1"/>
<path d="M35.627 25.1982C36.2483 25.1982 36.752 24.6946 36.752 24.0732C36.752 23.4519 36.2483 22.9482 35.627 22.9482C35.0056 22.9482 34.502 23.4519 34.502 24.0732C34.502 24.6946 35.0056 25.1982 35.627 25.1982Z" fill="#428BC1"/>
<path d="M36.752 21.1484C37.3733 21.1484 37.877 20.6448 37.877 20.0234C37.877 19.4021 37.3733 18.8984 36.752 18.8984C36.1306 18.8984 35.627 19.4021 35.627 20.0234C35.627 20.6448 36.1306 21.1484 36.752 21.1484Z" fill="#428BC1"/>
<path d="M36.7514 17.0986C36.0764 17.0986 35.6264 16.6486 35.4014 16.1986C35.4014 15.5236 35.8514 15.0736 36.3014 14.8486C36.9764 14.8486 37.4264 15.2986 37.6514 15.7486C37.8764 16.4236 37.4264 16.8736 36.7514 17.0986Z" fill="#428BC1"/>
<path d="M35.627 13.0498C36.2483 13.0498 36.752 12.5461 36.752 11.9248C36.752 11.3035 36.2483 10.7998 35.627 10.7998C35.0056 10.7998 34.502 11.3035 34.502 11.9248C34.502 12.5461 35.0056 13.0498 35.627 13.0498Z" fill="#428BC1"/>
<path d="M33.6016 9.44824C34.2229 9.44824 34.7266 8.94456 34.7266 8.32324C34.7266 7.70192 34.2229 7.19824 33.6016 7.19824C32.9802 7.19824 32.4766 7.70192 32.4766 8.32324C32.4766 8.94456 32.9802 9.44824 33.6016 9.44824Z" fill="#428BC1"/>
<path d="M30.6768 6.52344C31.2981 6.52344 31.8018 6.01976 31.8018 5.39844C31.8018 4.77712 31.2981 4.27344 30.6768 4.27344C30.0554 4.27344 29.5518 4.77712 29.5518 5.39844C29.5518 6.01976 30.0554 6.52344 30.6768 6.52344Z" fill="#428BC1"/>
<path d="M28.2016 3.82396C27.9766 4.49896 27.3016 4.72396 26.6266 4.49896C25.9516 4.27396 25.7266 3.59896 25.9516 2.92396C26.1766 2.24896 26.8516 2.02396 27.5266 2.24896C28.2016 2.69896 28.4266 3.37396 28.2016 3.82396ZM24.1516 2.47396C24.1516 3.14896 23.4766 3.59896 22.8016 3.37396C22.1266 3.37396 21.6766 2.69896 21.9016 2.02396C21.9016 1.34896 22.5766 0.898959 23.2516 1.12396C23.9266 1.34896 24.3766 2.02396 24.1516 2.47396ZM20.1016 2.24896C20.1016 2.92396 19.6516 3.37396 19.2016 3.59896C18.5266 3.59896 18.0766 3.14896 17.8516 2.69896C17.8516 2.02396 18.3016 1.57396 18.7516 1.34896C19.4266 1.12396 20.1016 1.57396 20.1016 2.24896Z" fill="#428BC1"/>
<path d="M21.002 21.375C22.8659 21.375 24.377 19.864 24.377 18C24.377 16.136 22.8659 14.625 21.002 14.625C19.138 14.625 17.627 16.136 17.627 18C17.627 19.864 19.138 21.375 21.002 21.375Z" fill="#428BC1"/>
<path d="M21.0012 2.25L20.5512 11.925L21.0012 18L21.6762 11.925L21.0012 2.25ZM16.9512 2.7L18.9762 12.375L21.0012 18L20.1012 11.925L16.9512 2.7Z" fill="#428BC1"/>
<path d="M13.1266 4.27344L17.6266 13.0484L21.0016 17.9984L18.5266 12.3734L13.1266 4.27344ZM9.97656 6.74844L16.5016 14.1734L21.0016 17.9984L17.1766 13.2734L9.97656 6.74844Z" fill="#428BC1"/>
<path d="M7.50195 10.125L15.602 15.525L21.002 18L16.052 14.4L7.50195 10.125Z" fill="#428BC1"/>
<path d="M5.92696 13.9482L15.152 16.8732L21.002 17.9982L15.377 15.9732L5.92696 13.9482ZM5.25195 17.9982L15.152 18.4482L21.002 17.9982L15.152 17.5482L5.25195 17.9982Z" fill="#428BC1"/>
<path d="M5.92676 22.05L15.3768 20.025L21.0018 18L15.1518 19.125L5.92676 22.05ZM7.50176 25.875L16.0518 21.6L21.0018 18L15.6018 20.475L7.50176 25.875Z" fill="#428BC1"/>
<path d="M9.97656 29.025L17.1766 22.725L21.0016 18L16.5016 21.825L9.97656 29.025ZM13.1266 31.725L18.5266 23.4L21.0016 18L17.6266 22.95L13.1266 31.725Z" fill="#428BC1"/>
<path d="M16.9512 33.3L20.1012 24.075L21.0012 18L18.9762 23.625L16.9512 33.3ZM21.0012 33.75L21.6762 24.075L21.0012 18L20.5512 24.075L21.0012 33.75ZM25.0512 33.3L23.2512 23.625L21.0012 18L22.1262 24.075L25.0512 33.3Z" fill="#428BC1"/>
<path d="M28.877 31.725L24.602 22.95L21.002 18L23.702 23.625L28.877 31.725ZM32.252 29.025L25.727 21.825L21.002 18L25.052 22.725L32.252 29.025Z" fill="#428BC1"/>
<path d="M34.727 25.8732L26.627 20.4732L21.002 17.9982L25.952 21.5982L34.727 25.8732ZM36.302 22.0482L27.077 19.1232L21.002 17.9982L26.852 20.0232L36.302 22.0482ZM36.752 17.9982L27.077 17.3232L21.002 17.9982L27.077 18.4482L36.752 17.9982ZM36.302 13.9482L26.852 15.9732L21.002 17.9982L27.077 16.8732L36.302 13.9482Z" fill="#428BC1"/>
<path d="M34.727 10.1246L25.952 14.3996L21.002 17.9996L26.627 15.5246L34.727 10.1246ZM32.252 6.97461L25.052 13.2746L21.002 17.9996L25.727 14.1746L32.252 6.97461Z" fill="#428BC1"/>
<path d="M28.877 4.27344L23.702 12.5984L21.002 17.9984L24.602 13.0484L28.877 4.27344Z" fill="#428BC1"/>
<path d="M25.277 2.69824L22.127 11.9232L21.002 17.9982L23.252 12.3732L25.277 2.69824Z" fill="#428BC1"/>
<path d="M1.92 64V46.72H4.812V64H1.92ZM8.40656 64V46.72H11.3346L19.3506 58.9V46.72H22.2786V64H19.3506L11.3346 51.82V64H8.40656ZM25.6331 64V46.72H31.1411C31.2851 46.72 31.5691 46.724 31.9931 46.732C32.4251 46.74 32.8411 46.768 33.2411 46.816C34.6091 46.992 35.7651 47.48 36.7091 48.28C37.6611 49.072 38.3811 50.084 38.8691 51.316C39.3571 52.548 39.6011 53.896 39.6011 55.36C39.6011 56.824 39.3571 58.172 38.8691 59.404C38.3811 60.636 37.6611 61.652 36.7091 62.452C35.7651 63.244 34.6091 63.728 33.2411 63.904C32.8491 63.952 32.4371 63.98 32.0051 63.988C31.5731 63.996 31.2851 64 31.1411 64H25.6331ZM28.5731 61.276H31.1411C31.3811 61.276 31.6851 61.268 32.0531 61.252C32.4291 61.236 32.7611 61.2 33.0491 61.144C33.8651 60.992 34.5291 60.628 35.0411 60.052C35.5531 59.476 35.9291 58.776 36.1691 57.952C36.4171 57.128 36.5411 56.264 36.5411 55.36C36.5411 54.424 36.4171 53.544 36.1691 52.72C35.9211 51.896 35.5371 51.204 35.0171 50.644C34.5051 50.084 33.8491 49.728 33.0491 49.576C32.7611 49.512 32.4291 49.476 32.0531 49.468C31.6851 49.452 31.3811 49.444 31.1411 49.444H28.5731V61.276Z" fill="black"/>
</svg>
